<svg xmlns="http://www.w3.org/2000/svg" width="25" height="20" viewBox="0 0 25 20" fill="none">
  <path d="M0.21582 2.46928C0.21582 2.0604 0.378246 1.66827 0.667364 1.37916C0.956483 1.09004 1.34861 0.927612 1.75749 0.927612H23.3408C23.7497 0.927612 24.1418 1.09004 24.4309 1.37916C24.7201 1.66827 24.8825 2.0604 24.8825 2.46928C24.8825 2.87815 24.7201 3.27028 24.4309 3.5594C24.1418 3.84852 23.7497 4.01095 23.3408 4.01095H1.75749C1.34861 4.01095 0.956483 3.84852 0.667364 3.5594C0.378246 3.27028 0.21582 2.87815 0.21582 2.46928ZM0.21582 10.1776C0.21582 9.76874 0.378246 9.37661 0.667364 9.08749C0.956483 8.79837 1.34861 8.63595 1.75749 8.63595H23.3408C23.7497 8.63595 24.1418 8.79837 24.4309 9.08749C24.7201 9.37661 24.8825 9.76874 24.8825 10.1776C24.8825 10.5865 24.7201 10.9786 24.4309 11.2677C24.1418 11.5569 23.7497 11.7193 23.3408 11.7193H1.75749C1.34861 11.7193 0.956483 11.5569 0.667364 11.2677C0.378246 10.9786 0.21582 10.5865 0.21582 10.1776ZM0.21582 17.8859C0.21582 17.4771 0.378246 17.0849 0.667364 16.7958C0.956483 16.5067 1.34861 16.3443 1.75749 16.3443H23.3408C23.7497 16.3443 24.1418 16.5067 24.4309 16.7958C24.7201 17.0849 24.8825 17.4771 24.8825 17.8859C24.8825 18.2948 24.7201 18.687 24.4309 18.9761C24.1418 19.2652 23.7497 19.4276 23.3408 19.4276H1.75749C1.34861 19.4276 0.956483 19.2652 0.667364 18.9761C0.378246 18.687 0.21582 18.2948 0.21582 17.8859Z" fill="black"/>
</svg>